<?xml version="1.0" standalone="no"?><!DOCTYPE svg PUBLIC "-//W3C//DTD SVG 1.1//EN" "http://www.w3.org/Graphics/SVG/1.1/DTD/svg11.dtd"><svg t="1620226314048" class="icon" viewBox="0 0 1024 1024" version="1.1" xmlns="http://www.w3.org/2000/svg" p-id="13188" xmlns:xlink="http://www.w3.org/1999/xlink" width="200" height="200"><defs><style type="text/css"></style></defs><path d="M503.808 518.144m-442.368 0a432 432 0 1 0 884.736 0 432 432 0 1 0-884.736 0Z" p-id="13189" fill="#515151"></path><path d="M631.0912 501.9648 459.264 330.1376c-8.9088-8.9088-23.4496-8.9088-32.3584 0-8.9088 8.9088-8.9088 23.4496 0 32.3584l155.648 155.648-155.648 155.648c-8.9088 8.9088-8.9088 23.4496 0 32.3584 8.9088 8.9088 23.4496 8.9088 32.3584 0l171.8272-171.8272C640 525.4144 640 510.8736 631.0912 501.9648z" p-id="13190" fill="#515151"></path></svg>